<svg width="138" height="47" viewBox="0 0 138 47" fill="none" xmlns="http://www.w3.org/2000/svg">
<g clip-path="url(#clip0_3_93)">
<path d="M59.6148 19.5736C59.6148 19.5736 59.5553 19.5736 59.5553 19.5141V6.36553C59.5553 5.85982 59.7338 5.44335 60.0908 5.08638C60.4478 4.72941 60.8642 4.55092 61.3699 4.55092H65.2669C65.6834 4.55092 66.0701 4.66991 66.3973 4.93764C66.7245 5.20537 66.9328 5.50285 67.022 5.88957C67.022 5.88957 67.0518 5.91932 67.0815 5.91932C67.0815 5.91932 67.141 5.91932 67.141 5.88957C67.2303 5.50285 67.4385 5.17562 67.7657 4.93764C68.0929 4.69966 68.4499 4.55092 68.8961 4.55092H72.7931C73.2988 4.55092 73.7153 4.72941 74.0722 5.08638C74.4292 5.44335 74.6077 5.85982 74.6077 6.36553V19.5141C74.6077 19.5141 74.6077 19.5736 74.5482 19.5736H71.6924C71.6924 19.5736 71.6329 19.5736 71.6329 19.5141V7.61494C71.6329 7.61494 71.6329 7.55545 71.5734 7.55545H68.6879C68.6879 7.55545 68.6582 7.55545 68.6582 7.61494V19.5141C68.6582 19.5141 68.6581 19.5736 68.5987 19.5736H65.7131C65.7131 19.5736 65.6536 19.5736 65.6536 19.5141V7.61494C65.6536 7.61494 65.6536 7.55545 65.6239 7.55545H62.7383C62.7383 7.55545 62.6788 7.55545 62.6788 7.61494V19.5141C62.6788 19.5141 62.6788 19.5736 62.6193 19.5736H59.7338H59.6148Z" fill="#1E1E1E"/>
<path d="M77.9689 19.5733C77.9689 19.5733 77.9094 19.5733 77.9094 19.5138V6.36532C77.9094 5.85961 78.0879 5.44314 78.4449 5.08617C78.8019 4.72919 79.2183 4.5507 79.724 4.5507H85.1381C85.6439 4.5507 86.0603 4.72919 86.4173 5.08617C86.7743 5.44314 86.9527 5.85961 86.9527 6.36532V19.5138C86.9527 19.5138 86.9527 19.5733 86.8933 19.5733H84.0077C84.0077 19.5733 83.978 19.5733 83.978 19.5138V15.1409C83.978 15.1409 83.978 15.0814 83.9185 15.0814H81.0329C81.0329 15.0814 80.9734 15.0814 80.9734 15.1409V19.5138C80.9734 19.5138 80.9734 19.5733 80.9437 19.5733H78.0582H77.9689ZM80.9734 12.0769H83.859C83.859 12.0769 83.9185 12.0769 83.9185 12.0174V7.64448C83.9185 7.64448 83.9185 7.58498 83.859 7.58498H80.9734C80.9734 7.58498 80.914 7.58498 80.914 7.64448V12.0174C80.914 12.0174 80.9139 12.0769 80.9734 12.0769Z" fill="#1E1E1E"/>
<path d="M92.486 19.5733C91.9802 19.5733 91.5638 19.3948 91.2068 19.0379C90.8498 18.6809 90.6713 18.2644 90.6713 17.7587V15.1111C90.6713 15.1111 90.6713 15.0516 90.7308 15.0516H93.6164C93.6164 15.0516 93.6461 15.0516 93.6461 15.1111V16.4795C93.6461 16.4795 93.6461 16.539 93.7056 16.539H96.5912C96.5912 16.539 96.6506 16.539 96.6506 16.4795V13.594C96.6506 13.594 96.6506 13.5643 96.5912 13.5643H92.4562C91.9505 13.5643 91.534 13.3858 91.177 13.0288C90.8201 12.6718 90.6416 12.2554 90.6416 11.7496V6.33554C90.6416 5.82983 90.8201 5.41336 91.177 5.05639C91.534 4.69941 91.9505 4.52093 92.4562 4.52093H97.8703C98.376 4.52093 98.7925 4.69941 99.1495 5.05639C99.5064 5.41336 99.6849 5.82983 99.6849 6.33554V8.9831C99.6849 8.9831 99.6849 9.04259 99.6254 9.04259H96.7399C96.7399 9.04259 96.7101 9.04259 96.7101 8.9831V7.6147C96.7101 7.6147 96.7101 7.5552 96.6506 7.5552H93.7651C93.7651 7.5552 93.7056 7.5552 93.7056 7.6147V10.5002C93.7056 10.5002 93.7056 10.53 93.7651 10.53H97.9C98.4058 10.53 98.8222 10.7085 99.1792 11.0654C99.5362 11.4224 99.7147 11.8389 99.7147 12.3446V17.7587C99.7147 18.2644 99.5362 18.6809 99.1792 19.0379C98.8222 19.3948 98.4058 19.5733 97.9 19.5733H92.486Z" fill="#1E1E1E"/>
<path d="M106.497 19.5734C106.497 19.5734 106.438 19.5734 106.438 19.5139V7.61476C106.438 7.61476 106.438 7.55526 106.408 7.55526H103.522C103.522 7.55526 103.463 7.55526 103.463 7.49577V4.63998C103.463 4.63998 103.463 4.58048 103.522 4.58048H112.417C112.417 4.58048 112.476 4.58048 112.476 4.63998V7.49577C112.476 7.49577 112.476 7.55526 112.417 7.55526H109.531C109.531 7.55526 109.502 7.55526 109.502 7.61476V19.5139C109.502 19.5139 109.502 19.5734 109.442 19.5734H106.557H106.497Z" fill="#1E1E1E"/>
<path d="M116.254 19.5734C116.254 19.5734 116.195 19.5734 116.195 19.5139V4.63998C116.195 4.63998 116.195 4.58048 116.254 4.58048H125.149C125.149 4.58048 125.208 4.58048 125.208 4.63998V7.49577C125.208 7.49577 125.208 7.55526 125.149 7.55526H119.259C119.259 7.55526 119.199 7.55526 119.199 7.61476V10.5003C119.199 10.5003 119.199 10.53 119.259 10.53H123.632C123.632 10.53 123.691 10.53 123.691 10.5895V13.4751C123.691 13.4751 123.691 13.5346 123.632 13.5346H119.259C119.259 13.5346 119.199 13.5346 119.199 13.5643V16.4499C119.199 16.4499 119.199 16.5093 119.259 16.5093H125.149C125.149 16.5093 125.208 16.5093 125.208 16.5688V19.4246C125.208 19.4246 125.208 19.4841 125.149 19.4841H116.254V19.5734Z" fill="#1E1E1E"/>
<path d="M129.016 19.5734C129.016 19.5734 128.957 19.5734 128.957 19.5139V4.63998C128.957 4.63998 128.957 4.58048 129.016 4.58048H136.156C136.661 4.58048 137.078 4.75897 137.435 5.11594C137.792 5.47292 137.97 5.88939 137.97 6.3951V11.8092C137.97 12.2257 137.851 12.5826 137.584 12.9099C137.316 13.2371 136.989 13.4453 136.602 13.5643C136.602 13.5643 136.572 13.5941 136.572 13.6238C136.572 13.6238 136.572 13.6536 136.602 13.6536C136.989 13.7725 137.316 13.9808 137.584 14.308C137.851 14.6352 137.97 14.9922 137.97 15.4087V19.5436C137.97 19.5436 137.97 19.6031 137.911 19.6031H135.025C135.025 19.6031 134.996 19.6031 134.996 19.5436V15.1707C134.996 15.1707 134.996 15.1112 134.936 15.1112H132.051C132.051 15.1112 131.991 15.1112 131.991 15.1707V19.5436C131.991 19.5436 131.991 19.6031 131.961 19.6031H129.076L129.016 19.5734ZM132.021 12.0769H134.906C134.906 12.0769 134.966 12.0769 134.966 12.0174V7.6445C134.966 7.6445 134.966 7.58501 134.906 7.58501H132.021C132.021 7.58501 131.961 7.58501 131.961 7.6445V12.0174C131.961 12.0174 131.961 12.0769 132.021 12.0769Z" fill="#1E1E1E"/>
<path d="M61.3399 37.184C60.8342 37.184 60.4177 37.0055 60.0608 36.6485C59.7038 36.2915 59.5253 35.8751 59.5253 35.3694V23.976C59.5253 23.4702 59.7038 23.0538 60.0608 22.6968C60.4177 22.3398 60.8342 22.1613 61.3399 22.1613H66.754C67.2597 22.1613 67.6762 22.3398 68.0332 22.6968C68.3902 23.0538 68.5686 23.4702 68.5686 23.976V35.3694C68.5686 35.8751 68.3902 36.2915 68.0332 36.6485C67.6762 37.0055 67.2597 37.184 66.754 37.184H61.3399ZM62.6191 34.1795H65.5046C65.5046 34.1795 65.5641 34.1795 65.5641 34.12V25.2254C65.5641 25.2254 65.5641 25.1659 65.5046 25.1659H62.6191C62.6191 25.1659 62.5596 25.1659 62.5596 25.2254V34.12C62.5596 34.12 62.5596 34.1795 62.6191 34.1795Z" fill="#1E1E1E"/>
<path d="M74.1017 37.184C73.596 37.184 73.1795 37.0055 72.8225 36.6485C72.4656 36.2915 72.2871 35.8751 72.2871 35.3694V23.976C72.2871 23.4702 72.4656 23.0538 72.8225 22.6968C73.1795 22.3398 73.596 22.1613 74.1017 22.1613H79.5158C80.0215 22.1613 80.438 22.3398 80.7949 22.6968C81.1519 23.0538 81.3304 23.4702 81.3304 23.976V26.6235C81.3304 26.6235 81.3304 26.683 81.2709 26.683H78.3854C78.3854 26.683 78.3556 26.683 78.3556 26.6235V25.2551C78.3556 25.2551 78.3556 25.1956 78.2961 25.1956H75.4106C75.4106 25.1956 75.3511 25.1956 75.3511 25.2551V34.1497C75.3511 34.1497 75.3511 34.2092 75.4106 34.2092H78.2961C78.2961 34.2092 78.3556 34.2092 78.3556 34.1497V32.7813C78.3556 32.7813 78.3556 32.7218 78.3854 32.7218H81.2709C81.2709 32.7218 81.3304 32.7218 81.3304 32.7813V35.4289C81.3304 35.9346 81.1519 36.351 80.7949 36.708C80.438 37.065 80.0215 37.2435 79.5158 37.2435H74.1017V37.184Z" fill="#1E1E1E"/>
<path d="M85.1383 37.184C85.1383 37.184 85.0788 37.184 85.0788 37.1245V22.2506C85.0788 22.2506 85.0788 22.1911 85.1383 22.1911H94.0329C94.0329 22.1911 94.0923 22.1911 94.0923 22.2506V25.1064C94.0923 25.1064 94.0923 25.1659 94.0329 25.1659H88.1428C88.1428 25.1659 88.0833 25.1659 88.0833 25.2254V28.1109C88.0833 28.1109 88.0833 28.1407 88.1428 28.1407H92.5157C92.5157 28.1407 92.5752 28.1407 92.5752 28.2002V31.0857C92.5752 31.0857 92.5752 31.1452 92.5157 31.1452H88.1428C88.1428 31.1452 88.0833 31.1452 88.0833 31.175V34.0605C88.0833 34.0605 88.0833 34.12 88.1428 34.12H94.0329C94.0329 34.12 94.0923 34.12 94.0923 34.1795V37.0353C94.0923 37.0353 94.0923 37.0948 94.0329 37.0948H85.1383V37.184Z" fill="#1E1E1E"/>
<path d="M97.5132 37.184C97.5132 37.184 97.4538 37.184 97.4538 37.1245V23.976C97.4538 23.4702 97.6322 23.0538 97.9892 22.6968C98.3462 22.3398 98.7627 22.1613 99.2684 22.1613H104.682C105.188 22.1613 105.605 22.3398 105.962 22.6968C106.319 23.0538 106.497 23.4702 106.497 23.976V37.1245C106.497 37.1245 106.497 37.184 106.438 37.184H103.552C103.552 37.184 103.522 37.184 103.522 37.1245V32.7516C103.522 32.7516 103.522 32.6921 103.463 32.6921H100.577C100.577 32.6921 100.518 32.6921 100.518 32.7516V37.1245C100.518 37.1245 100.518 37.184 100.488 37.184H97.6025H97.5132ZM100.518 29.6875H103.403C103.403 29.6875 103.463 29.6875 103.463 29.628V25.2551C103.463 25.2551 103.463 25.1956 103.403 25.1956H100.518C100.518 25.1956 100.458 25.1956 100.458 25.2551V29.628C100.458 29.628 100.458 29.6875 100.518 29.6875Z" fill="#1E1E1E"/>
<path d="M110.275 37.184C110.275 37.184 110.215 37.184 110.215 37.1245V23.976C110.215 23.4702 110.394 23.0538 110.751 22.6968C111.108 22.3398 111.524 22.1613 112.03 22.1613H117.444C117.95 22.1613 118.366 22.3398 118.723 22.6968C119.08 23.0538 119.259 23.4702 119.259 23.976V37.1245C119.259 37.1245 119.259 37.184 119.199 37.184H116.314C116.314 37.184 116.284 37.184 116.284 37.1245V25.2254C116.284 25.2254 116.284 25.1659 116.225 25.1659H113.339C113.339 25.1659 113.28 25.1659 113.28 25.2254V37.1245C113.28 37.1245 113.28 37.184 113.25 37.184H110.364H110.275Z" fill="#1E1E1E"/>
<path d="M61.5779 41.2594H62.3216L64.4039 46.1083H63.4222L62.976 45.0076H60.8639L60.4177 46.1083H59.436L61.5481 41.2594H61.5779ZM62.6488 44.2639L61.9051 42.2708L61.1316 44.2639H62.6488Z" fill="#720E1E"/>
<path d="M66.3077 41.2594H67.4381L69.7882 44.8589V41.2594H70.6509V46.1083H69.5502L67.1407 42.3898V46.1083H66.278V41.2594H66.3077Z" fill="#720E1E"/>
<path d="M77.4633 45.7514C76.8683 46.0786 76.1841 46.2273 75.4404 46.2273C75.0537 46.2273 74.7265 46.1678 74.3992 46.0489C74.072 45.9299 73.8043 45.7514 73.596 45.5431C73.3581 45.3052 73.1796 45.0672 73.0606 44.7399C72.9416 44.4425 72.8821 44.0855 72.8821 43.6988C72.8821 43.3121 72.9416 42.9551 73.0606 42.6279C73.1796 42.3006 73.3581 42.0329 73.596 41.8247C73.834 41.5867 74.1018 41.4379 74.3992 41.319C74.6967 41.2 75.0537 41.1405 75.4404 41.1405C75.8271 41.1405 76.1543 41.1702 76.4816 41.2595C76.8088 41.3487 77.1063 41.4974 77.3443 41.7354L76.7196 42.3899C76.5708 42.2411 76.3626 42.1221 76.1544 42.0329C75.9461 41.9437 75.7081 41.9139 75.4404 41.9139C75.1727 41.9139 74.9644 41.9437 74.7562 42.0329C74.548 42.1221 74.3695 42.2411 74.2207 42.3899C74.072 42.5386 73.953 42.7171 73.8935 42.9551C73.8043 43.1633 73.7745 43.4013 73.7745 43.6393C73.7745 43.907 73.8043 44.145 73.8935 44.3532C73.9828 44.5615 74.1018 44.7697 74.2207 44.9184C74.3695 45.0672 74.548 45.2159 74.7562 45.3052C74.9644 45.3944 75.1727 45.4539 75.4404 45.4539C75.6486 45.4539 75.8569 45.4539 76.0651 45.3944C76.2733 45.3349 76.4221 45.2754 76.5708 45.2159V44.0557H75.5891V43.2823H77.4335V45.7514H77.4633Z" fill="#720E1E"/>
<path d="M79.6051 43.6988C79.6051 43.3121 79.6646 42.9551 79.7836 42.6279C79.9026 42.3006 80.0811 42.0329 80.3191 41.8247C80.557 41.5867 80.8248 41.4379 81.1223 41.319C81.4197 41.2 81.7767 41.1405 82.1634 41.1405C82.5502 41.1405 82.8774 41.2 83.2046 41.319C83.5318 41.4379 83.7996 41.6164 84.0078 41.8247C84.2458 42.0626 84.4243 42.3304 84.5433 42.6279C84.6622 42.9551 84.7217 43.2823 84.7217 43.6988C84.7217 44.1152 84.6622 44.4127 84.5433 44.7399C84.4243 45.0672 84.2458 45.3052 84.0078 45.5431C83.7698 45.7811 83.5021 45.9299 83.2046 46.0786C82.8774 46.1976 82.5502 46.2571 82.1634 46.2868C81.7767 46.2868 81.4495 46.2273 81.1223 46.1083C80.795 45.9894 80.5273 45.8109 80.3191 45.6026C80.0811 45.3647 79.9026 45.1267 79.7836 44.7994C79.6646 44.502 79.6051 44.145 79.6051 43.7583V43.6988ZM80.5273 43.6393C80.5273 43.907 80.557 44.145 80.6463 44.3532C80.7355 44.5615 80.8545 44.7697 80.9735 44.9184C81.1223 45.0672 81.3007 45.2159 81.509 45.3052C81.7172 45.3944 81.9254 45.4539 82.1932 45.4539C82.4609 45.4539 82.6691 45.3944 82.8774 45.3052C83.0856 45.2159 83.2641 45.0969 83.4128 44.9184C83.5616 44.7697 83.6806 44.5615 83.7401 44.3532C83.8293 44.145 83.8591 43.8773 83.8591 43.6393C83.8591 43.4013 83.8293 43.1633 83.7401 42.9551C83.6508 42.7468 83.5616 42.5684 83.4128 42.3899C83.2641 42.2411 83.0856 42.1221 82.8774 42.0329C82.6691 41.9437 82.4312 41.9139 82.1932 41.9139C81.9552 41.9139 81.7172 41.9437 81.509 42.0329C81.3007 42.1221 81.1223 42.2411 80.9735 42.3899C80.8248 42.5386 80.7058 42.7171 80.6463 42.9551C80.557 43.1633 80.5273 43.4013 80.5273 43.6393Z" fill="#720E1E"/>
<path d="M86.9527 41.2594H87.8154V45.3348H89.8978V46.1083H86.9527V41.2594Z" fill="#720E1E"/>
<path d="M93.4674 41.2594H94.2111L96.2935 46.1083H95.3118L94.8656 45.0076H92.7535L92.3073 46.1083H91.3256L93.4377 41.2594H93.4674ZM94.5681 44.2639L93.8244 42.2708L93.0509 44.2639H94.5681Z" fill="#720E1E"/>
<path d="M23.5899 3.18226C30.7294 3.18226 37.1549 6.36527 41.0519 11.3629C39.029 10.649 36.8277 10.2622 34.5074 10.2622C33.0795 10.2622 31.6516 10.411 30.2534 10.6787C27.9331 11.1547 25.7615 11.9579 23.6792 12.7611C22.7273 13.118 21.8051 13.475 20.8531 13.8022C20.5854 13.8915 20.2879 13.9807 19.9905 14.07C18.4733 14.5162 17.0454 14.7244 15.5878 14.7244C13.6839 14.7244 11.8098 14.3377 9.81671 13.5642C8.38882 12.999 7.10967 12.3446 5.97925 11.5711C9.90596 6.36527 16.4802 3.18226 23.5899 3.18226ZM23.5899 0.77269C14.5764 0.77269 6.72294 5.35385 2.73674 12.1066C4.52161 13.6832 6.66345 14.9029 8.95403 15.7953C11.1851 16.658 13.3864 17.134 15.5878 17.134C17.2537 17.134 18.9195 16.896 20.6747 16.3605C21.0019 16.2713 21.2994 16.182 21.5968 16.0631C24.6311 15.0516 27.5464 13.6832 30.7294 13.0288C31.9788 12.7908 33.258 12.6421 34.5074 12.6421C36.679 12.6421 38.8506 13.0288 40.8437 13.832C43.2235 14.7839 45.2166 16.301 46.8527 18.1454C44.7406 8.23939 35.1321 0.77269 23.6197 0.77269L23.5899 0.77269Z" fill="#1E1E1E"/>
<path d="M47.2693 22.2506C47.2693 22.7266 47.2693 23.2025 47.2098 23.6487C46.4066 23.0538 45.5737 22.5183 44.6813 22.0424C40.5761 19.8708 35.4595 19.6625 30.8783 20.317C26.7434 20.9119 22.7571 22.1018 18.652 22.905C14.4278 23.738 10.0548 24.0355 5.8604 22.9943C4.01604 22.5183 2.23117 21.6259 0.684288 20.6145C0.476054 20.4657 0.267819 20.3467 0.0893326 20.198C0.208324 19.0973 0.416558 18.0264 0.714036 16.9852C1.42798 17.6694 2.23117 18.2941 3.09386 18.7998C7.19905 21.1797 12.2264 21.0012 16.8076 20.1385C21.121 19.3353 25.3155 17.9967 29.6586 17.2827C35.7867 16.301 41.7065 17.0447 46.5256 20.7632C46.7636 20.9714 47.0313 21.1499 47.2693 21.3582C47.2693 21.6556 47.2693 21.9531 47.2693 22.2506Z" fill="#CD2031"/>
<path d="M47.0611 25.0767C47.0016 25.5527 46.9123 25.9989 46.8231 26.4451C46.5553 26.3261 46.2579 26.2071 45.9604 26.0881C44.3243 25.5229 42.3609 26.0286 40.7545 26.4154C38.8507 26.8913 37.0063 27.5458 35.1917 28.1705C31.4137 29.5091 27.6655 30.9668 23.6495 31.5617C20.7938 31.9782 17.8487 31.9782 14.9929 31.6212C9.87632 30.9965 4.96793 29.3306 0.56526 26.9508C0.29753 25.9394 0.148791 24.8982 0.0595474 23.8273C0.386773 24.1248 0.713999 24.3925 1.04122 24.6602C4.016 26.9806 7.40725 28.1407 10.9472 28.4679C14.6955 28.8249 18.6222 28.2597 22.3704 27.2185C29.3314 25.2552 36.5303 22.0722 43.9673 23.8868C45.068 24.1545 46.1389 24.5412 47.1206 25.0767H47.0611Z" fill="#FFCC04"/>
<path d="M42.8666 30.2825C39.4456 36.9163 31.9789 41.319 23.59 41.319C20.0798 41.319 16.7481 40.5455 13.7435 39.1771C15.1417 39.3854 16.5398 39.4746 17.938 39.4746C19.7823 39.4746 21.5969 39.2961 23.3521 38.9391C27.7547 38.0765 31.6517 36.1131 35.3999 34.239L35.9651 33.9415C37.0063 33.4061 38.0177 32.8409 39.0291 32.2756C40.2191 31.6212 41.3197 30.9965 42.4799 30.4313C42.5989 30.3718 42.7179 30.3123 42.8369 30.2825M44.7705 27.4268C43.7293 27.4268 42.6584 27.7242 41.528 28.2597C39.2671 29.3306 37.1848 30.6693 34.9537 31.7699C31.146 33.6738 27.2193 35.7264 22.9356 36.5593C21.2995 36.8865 19.6336 37.0353 17.9677 37.0353C15.5879 37.0353 13.1783 36.7081 10.8877 36.0834C9.93581 35.8156 9.01363 35.5182 8.09144 35.1314C6.18759 34.358 4.34322 33.4061 2.6476 32.2459C6.60405 39.0581 14.517 43.6988 23.59 43.6988C34.567 43.6988 43.8185 36.9163 46.4661 27.6945C45.9009 27.4862 45.3357 27.397 44.7407 27.397L44.7705 27.4268Z" fill="#1E1E1E"/>
</g>
<defs>
<clipPath id="clip0_3_93">
<rect width="138" height="45.4546" fill="white" transform="translate(0 0.77269)"/>
</clipPath>
</defs>
</svg>
