<svg width="48" height="44" viewBox="0 0 48 44" fill="none" xmlns="http://www.w3.org/2000/svg">
<path d="M23.5899 3.18226C30.7294 3.18226 37.1549 6.36527 41.0519 11.3629C39.029 10.649 36.8277 10.2622 34.5074 10.2622C33.0795 10.2622 31.6516 10.411 30.2534 10.6787C27.9331 11.1547 25.7615 11.9579 23.6792 12.7611C22.7273 13.118 21.8051 13.475 20.8531 13.8022C20.5854 13.8915 20.2879 13.9807 19.9905 14.07C18.4733 14.5162 17.0454 14.7244 15.5878 14.7244C13.6839 14.7244 11.8098 14.3377 9.81671 13.5642C8.38882 12.999 7.10967 12.3446 5.97925 11.5711C9.90596 6.36527 16.4802 3.18226 23.5899 3.18226ZM23.5899 0.77269C14.5764 0.77269 6.72294 5.35385 2.73674 12.1066C4.52161 13.6832 6.66345 14.9029 8.95403 15.7953C11.1851 16.658 13.3864 17.134 15.5878 17.134C17.2537 17.134 18.9195 16.896 20.6747 16.3605C21.0019 16.2713 21.2994 16.182 21.5968 16.0631C24.6311 15.0516 27.5464 13.6832 30.7294 13.0288C31.9788 12.7908 33.258 12.6421 34.5074 12.6421C36.679 12.6421 38.8506 13.0288 40.8437 13.832C43.2235 14.7839 45.2166 16.301 46.8527 18.1454C44.7406 8.23939 35.1321 0.77269 23.6197 0.77269L23.5899 0.77269Z" fill="#1E1E1E"/>
<path d="M47.2693 22.2506C47.2693 22.7265 47.2693 23.2025 47.2098 23.6487C46.4066 23.0538 45.5737 22.5183 44.6813 22.0423C40.5761 19.8708 35.4594 19.6625 30.8783 20.317C26.7433 20.9119 22.7571 22.1018 18.6519 22.905C14.4278 23.738 10.0548 24.0354 5.8604 22.9943C4.01603 22.5183 2.23117 21.6259 0.684281 20.6145C0.476046 20.4657 0.267812 20.3467 0.089325 20.198C0.208316 19.0973 0.416551 18.0264 0.714029 16.9852C1.42798 17.6694 2.23117 18.2941 3.09385 18.7998C7.19905 21.1797 12.2264 21.0012 16.8076 20.1385C21.121 19.3353 25.3155 17.9966 29.6586 17.2827C35.7867 16.301 41.7065 17.0447 46.5256 20.7632C46.7636 20.9714 47.0313 21.1499 47.2693 21.3581C47.2693 21.6556 47.2693 21.9531 47.2693 22.2506Z" fill="#CD2031"/>
<path d="M47.061 25.0767C47.0016 25.5527 46.9123 25.9989 46.8231 26.4451C46.5553 26.3261 46.2579 26.2071 45.9604 26.0881C44.3243 25.5229 42.3609 26.0286 40.7545 26.4154C38.8507 26.8913 37.0063 27.5458 35.1917 28.1705C31.4137 29.5091 27.6655 30.9668 23.6495 31.5617C20.7937 31.9782 17.8487 31.9782 14.9929 31.6212C9.87631 30.9965 4.96793 29.3306 0.565252 26.9508C0.297522 25.9394 0.148783 24.8982 0.0595398 23.8273C0.386765 24.1248 0.713991 24.3925 1.04122 24.6602C4.016 26.9806 7.40724 28.1407 10.9472 28.468C14.6955 28.8249 18.6222 28.2597 22.3704 27.2185C29.3314 25.2552 36.5303 22.0722 43.9673 23.8868C45.0679 24.1545 46.1389 24.5412 47.1205 25.0767H47.061Z" fill="#FFCC04"/>
<path d="M42.8666 30.2825C39.4456 36.9163 31.9789 41.319 23.59 41.319C20.0798 41.319 16.7481 40.5455 13.7435 39.1771C15.1417 39.3854 16.5398 39.4746 17.938 39.4746C19.7823 39.4746 21.5969 39.2961 23.3521 38.9391C27.7547 38.0765 31.6517 36.1131 35.3999 34.239L35.9651 33.9415C37.0063 33.4061 38.0177 32.8409 39.0291 32.2756C40.2191 31.6212 41.3197 30.9965 42.4799 30.4313C42.5989 30.3718 42.7179 30.3123 42.8369 30.2825M44.7705 27.4268C43.7293 27.4268 42.6584 27.7242 41.528 28.2597C39.2671 29.3306 37.1848 30.6693 34.9537 31.7699C31.146 33.6738 27.2193 35.7264 22.9356 36.5593C21.2995 36.8865 19.6336 37.0353 17.9677 37.0353C15.5879 37.0353 13.1783 36.7081 10.8877 36.0834C9.93581 35.8156 9.01363 35.5182 8.09144 35.1314C6.18759 34.358 4.34322 33.4061 2.6476 32.2459C6.60405 39.0581 14.517 43.6988 23.59 43.6988C34.567 43.6988 43.8185 36.9163 46.4661 27.6945C45.9009 27.4862 45.3357 27.397 44.7407 27.397L44.7705 27.4268Z" fill="#1E1E1E"/>
</svg>
