<svg width="278" height="59" viewBox="0 0 278 59" fill="none" xmlns="http://www.w3.org/2000/svg">
<g clip-path="url(#clip0_16_24)">
<path d="M230.666 46.4546H231.667L234.538 53.1222H233.189L232.58 51.5869H229.709L229.1 53.1222H227.795L230.666 46.4546ZM232.145 50.6219L231.145 47.9022L230.1 50.6219H232.145Z" fill="white"/>
<path d="M237.148 46.4546H238.715L241.934 51.4115V46.4546H243.109V53.1222H241.629L238.367 47.9899V53.1222H237.192V46.4546H237.148Z" fill="white"/>
<path d="M252.332 52.6395C251.505 53.0781 250.592 53.2975 249.591 53.2975C249.069 53.2975 248.59 53.2097 248.199 53.0343C247.764 52.8588 247.416 52.6395 247.111 52.3324C246.807 52.0254 246.546 51.6744 246.372 51.2358C246.197 50.7971 246.11 50.3146 246.11 49.832C246.11 49.3495 246.197 48.8231 246.372 48.3845C246.546 47.9458 246.807 47.5949 247.111 47.2878C247.416 46.9807 247.807 46.7614 248.199 46.5859C248.634 46.4105 249.112 46.3228 249.591 46.3228C250.069 46.3228 250.548 46.3666 251.027 46.4982C251.462 46.6298 251.853 46.8491 252.201 47.1562L251.331 48.0335C251.331 48.0335 250.853 47.6826 250.548 47.551C250.243 47.4194 249.939 47.3755 249.591 47.3755C249.243 47.3755 248.938 47.4194 248.677 47.551C248.416 47.6826 248.155 47.8581 247.938 48.0774C247.72 48.2967 247.59 48.5599 247.459 48.8231C247.372 49.1302 247.285 49.4373 247.285 49.7443C247.285 50.0952 247.329 50.4462 247.459 50.7532C247.59 51.0603 247.72 51.3235 247.938 51.5428C248.155 51.7622 248.373 51.9376 248.677 52.0692C248.938 52.2008 249.243 52.2447 249.591 52.2447C249.895 52.2447 250.156 52.2447 250.418 52.157C250.679 52.1131 250.94 52.0254 251.114 51.8938V50.3146H249.765V49.2179H252.288V52.6395H252.332Z" fill="white"/>
<path d="M255.247 49.832C255.247 49.3057 255.334 48.8231 255.508 48.3845C255.682 47.9458 255.943 47.5949 256.247 47.2878C256.552 46.9807 256.943 46.7614 257.335 46.5859C257.77 46.4105 258.249 46.3228 258.727 46.3228C259.249 46.3228 259.728 46.4105 260.163 46.5421C260.598 46.7175 260.946 46.9369 261.294 47.2439C261.598 47.551 261.859 47.9019 262.033 48.3406C262.207 48.7793 262.295 49.2618 262.295 49.7882C262.295 50.3146 262.207 50.7971 262.033 51.2358C261.859 51.6744 261.598 52.0254 261.294 52.3324C260.989 52.6395 260.598 52.8588 260.163 53.0781C259.728 53.2536 259.249 53.3413 258.727 53.3413C258.205 53.3413 257.726 53.2536 257.335 53.0781C256.9 52.9027 256.552 52.6833 256.247 52.3763C255.943 52.0692 255.682 51.7183 255.508 51.2796C255.334 50.841 255.247 50.3584 255.247 49.8759V49.832ZM256.465 49.7443C256.465 50.0952 256.508 50.4462 256.639 50.7532C256.769 51.0603 256.9 51.3235 257.117 51.5428C257.335 51.7622 257.552 51.9376 257.857 52.0692C258.118 52.2008 258.423 52.2447 258.771 52.2447C259.119 52.2447 259.423 52.2008 259.684 52.0692C259.945 51.9376 260.206 51.7622 260.424 51.5428C260.641 51.3235 260.772 51.0603 260.902 50.7532C261.033 50.4462 261.076 50.1391 261.076 49.7443C261.076 49.3934 261.033 49.0863 260.902 48.8231C260.815 48.5161 260.641 48.2967 260.424 48.0774C260.206 47.8581 259.989 47.6826 259.684 47.551C259.423 47.4194 259.075 47.3755 258.771 47.3755C258.466 47.3755 258.118 47.4194 257.857 47.551C257.596 47.6826 257.335 47.8581 257.117 48.0774C256.9 48.2967 256.769 48.5599 256.639 48.8231C256.552 49.1302 256.465 49.4373 256.465 49.7443Z" fill="white"/>
<path d="M265.253 46.4546H266.428V52.0695H269.255V53.1661H265.253V46.4985V46.4546Z" fill="white"/>
<path d="M274.128 46.4546H275.129L278 53.1222H276.651L276.042 51.5869H273.171L272.562 53.1222H271.257L274.128 46.4546ZM275.607 50.6219L274.607 47.9022L273.562 50.6219H275.607Z" fill="white"/>
<path d="M0.087011 39.1287C0.087011 39.1287 0 39.1287 0 39.041V20.9681C0 20.2663 0.261033 19.696 0.739593 19.2135C1.21815 18.731 1.78372 18.4678 2.47981 18.4678H7.78748C8.35305 18.4678 8.87512 18.6432 9.31017 18.9942C9.74523 19.3451 10.0498 19.7838 10.1803 20.3102C10.1803 20.3102 10.2238 20.354 10.2673 20.354C10.2673 20.354 10.3108 20.354 10.3543 20.3102C10.4848 19.7838 10.7894 19.3451 11.2244 18.9942C11.6595 18.6432 12.1815 18.4678 12.7471 18.4678H18.0548C18.7509 18.4678 19.3164 18.731 19.795 19.2135C20.2736 19.696 20.5346 20.2663 20.5346 20.9681V39.041C20.5346 39.041 20.5346 39.1287 20.4476 39.1287H16.5321C16.5321 39.1287 16.4451 39.1287 16.4451 39.041V22.7228C16.4451 22.7228 16.4451 22.6351 16.3581 22.6351H12.3991C12.3991 22.6351 12.3556 22.6351 12.3556 22.7228V39.041C12.3556 39.041 12.3556 39.1287 12.2685 39.1287H8.30955C8.30955 39.1287 8.22254 39.1287 8.22254 39.041V22.7228C8.22254 22.7228 8.22254 22.6351 8.17903 22.6351H4.22003C4.22003 22.6351 4.13302 22.6351 4.13302 22.7228V39.041C4.13302 39.041 4.13302 39.1287 4.04601 39.1287H0.087011Z" fill="white"/>
<path d="M25.1027 39.1287C25.1027 39.1287 25.0156 39.1287 25.0156 39.041V20.9681C25.0156 20.2663 25.2332 19.696 25.7552 19.2135C26.2338 18.731 26.7994 18.4678 27.4955 18.4678H34.8479C35.544 18.4678 36.1095 18.731 36.5881 19.2135C37.0667 19.696 37.3277 20.2663 37.3277 20.9681V39.041C37.3277 39.041 37.3277 39.1287 37.2407 39.1287H33.2817C33.2817 39.1287 33.2382 39.1287 33.2382 39.041V33.0313C33.2382 33.0313 33.2382 32.9436 33.1512 32.9436H29.1922C29.1922 32.9436 29.1052 32.9436 29.1052 33.0313V39.041C29.1052 39.041 29.1052 39.1287 29.0617 39.1287H25.1027ZM29.1922 28.8202H33.1512C33.1512 28.8202 33.2382 28.8202 33.2382 28.7325V22.7228C33.2382 22.7228 33.2382 22.6351 33.1512 22.6351H29.1922C29.1922 22.6351 29.1052 22.6351 29.1052 22.7228V28.7325C29.1052 28.7325 29.1052 28.8202 29.1922 28.8202Z" fill="white"/>
<path d="M44.8977 39.1287C44.2016 39.1287 43.636 38.9093 43.1574 38.3829C42.6789 37.9004 42.4178 37.3302 42.4178 36.6283V32.9874C42.4178 32.9874 42.4178 32.8997 42.5049 32.8997H46.4639C46.4639 32.8997 46.5074 32.8997 46.5074 32.9874V34.8736C46.5074 34.8736 46.5074 34.9614 46.5944 34.9614H50.5534C50.5534 34.9614 50.6404 34.9614 50.6404 34.8736V30.8818C50.6404 30.8818 50.6404 30.838 50.5534 30.838H44.8977C44.2016 30.838 43.636 30.5748 43.1574 30.0922C42.6789 29.6097 42.4178 29.0394 42.4178 28.3376V20.9242C42.4178 20.2223 42.6789 19.6521 43.1574 19.1696C43.636 18.687 44.2016 18.4238 44.8977 18.4238H52.2501C52.9462 18.4238 53.5117 18.687 53.9903 19.1696C54.4689 19.6521 54.7299 20.2223 54.7299 20.9242V24.5651C54.7299 24.5651 54.7299 24.6528 54.6429 24.6528H50.6839C50.6839 24.6528 50.6404 24.6528 50.6404 24.5651V22.6788C50.6404 22.6788 50.6404 22.5911 50.5534 22.5911H46.5944C46.5944 22.5911 46.5074 22.5911 46.5074 22.6788V26.6707C46.5074 26.6707 46.5074 26.7145 46.5944 26.7145H52.2501C52.9462 26.7145 53.5117 26.9777 53.9903 27.4603C54.4689 27.9428 54.7299 28.513 54.7299 29.2149V36.6283C54.7299 37.3302 54.4689 37.9004 53.9903 38.3829C53.5117 38.8655 52.9462 39.1287 52.2501 39.1287H44.8977Z" fill="white"/>
<path d="M63.9966 39.1288C63.9966 39.1288 63.9096 39.1288 63.9096 39.0411V22.7229C63.9096 22.7229 63.9096 22.6351 63.866 22.6351H59.9071C59.9071 22.6351 59.82 22.6351 59.82 22.5474V18.5995C59.82 18.5995 59.82 18.5117 59.9071 18.5117H72.0016C72.0016 18.5117 72.0886 18.5117 72.0886 18.5995V22.5474C72.0886 22.5474 72.0886 22.6351 72.0016 22.6351H68.0426C68.0426 22.6351 67.9991 22.6351 67.9991 22.7229V39.0411C67.9991 39.0411 67.9991 39.1288 67.9121 39.1288H63.9531H63.9966Z" fill="white"/>
<path d="M77.2657 39.1288C77.2657 39.1288 77.1787 39.1288 77.1787 39.0411V18.5995C77.1787 18.5995 77.1787 18.5117 77.2657 18.5117H89.3602C89.3602 18.5117 89.4473 18.5117 89.4473 18.5995V22.5474C89.4473 22.5474 89.4473 22.6351 89.3602 22.6351H81.3552C81.3552 22.6351 81.2682 22.6351 81.2682 22.7229V26.7147C81.2682 26.7147 81.2682 26.7586 81.3552 26.7586H87.3155C87.3155 26.7586 87.4025 26.7586 87.4025 26.8463V30.8381C87.4025 30.8381 87.4025 30.9258 87.3155 30.9258H81.3552C81.3552 30.9258 81.2682 30.9258 81.2682 30.9697V34.9615C81.2682 34.9615 81.2682 35.0493 81.3552 35.0493H89.3602C89.3602 35.0493 89.4473 35.0493 89.4473 35.137V39.085C89.4473 39.085 89.4473 39.1727 89.3602 39.1727H77.2657V39.1288Z" fill="white"/>
<path d="M94.6679 39.1288C94.6679 39.1288 94.5809 39.1288 94.5809 39.0411V18.5995C94.5809 18.5995 94.5809 18.5117 94.6679 18.5117H104.413C105.109 18.5117 105.675 18.7749 106.153 19.2574C106.632 19.74 106.893 20.3102 106.893 21.0121V28.4255C106.893 28.9957 106.719 29.4783 106.371 29.9169C106.023 30.3556 105.588 30.6626 105.022 30.7942C105.022 30.7942 104.979 30.8381 104.979 30.882C104.979 30.9258 104.979 30.9258 105.022 30.9258C105.544 31.1013 106.023 31.3645 106.371 31.8032C106.719 32.2418 106.893 32.7244 106.893 33.2946V38.9972C106.893 38.9972 106.893 39.085 106.806 39.085H102.847C102.847 39.085 102.803 39.085 102.803 38.9972V32.9876C102.803 32.9876 102.803 32.8998 102.716 32.8998H98.7574C98.7574 32.8998 98.6704 32.8998 98.6704 32.9876V38.9972C98.6704 38.9972 98.6704 39.085 98.6269 39.085H94.6679V39.1288ZM98.7574 28.8203H102.716C102.716 28.8203 102.803 28.8203 102.803 28.7325V22.7229C102.803 22.7229 102.803 22.6351 102.716 22.6351H98.7574C98.7574 22.6351 98.6704 22.6351 98.6704 22.7229V28.7325C98.6704 28.7325 98.6704 28.8203 98.7574 28.8203Z" fill="white"/>
<path d="M197.993 39.1287C197.297 39.1287 196.732 38.9094 196.253 38.383C195.775 37.9005 195.514 37.3302 195.514 36.6284V20.9681C195.514 20.2663 195.775 19.696 196.253 19.2135C196.732 18.731 197.297 18.4678 197.993 18.4678H205.346C206.042 18.4678 206.608 18.731 207.086 19.2135C207.565 19.696 207.826 20.2663 207.826 20.9681V36.6284C207.826 37.3302 207.565 37.9005 207.086 38.383C206.608 38.8655 205.998 39.1287 205.346 39.1287H197.993ZM199.69 35.0053H203.649C203.649 35.0053 203.736 35.0053 203.736 34.9176V22.7228C203.736 22.7228 203.736 22.6351 203.649 22.6351H199.69C199.69 22.6351 199.603 22.6351 199.603 22.7228V34.9176C199.603 34.9176 199.603 35.0053 199.69 35.0053Z" fill="white"/>
<path d="M215.396 39.1287C214.7 39.1287 214.134 38.9094 213.655 38.383C213.177 37.9005 212.916 37.3302 212.916 36.6284V20.9681C212.916 20.2663 213.177 19.696 213.655 19.2135C214.134 18.731 214.7 18.4678 215.396 18.4678H222.748C223.444 18.4678 224.01 18.731 224.488 19.2135C224.967 19.696 225.228 20.2663 225.228 20.9681V24.609C225.228 24.609 225.228 24.6968 225.141 24.6968H221.182C221.182 24.6968 221.138 24.6968 221.138 24.609V22.7228C221.138 22.7228 221.138 22.6351 221.051 22.6351H217.092C217.092 22.6351 217.005 22.6351 217.005 22.7228V34.9176C217.005 34.9176 217.005 35.0053 217.092 35.0053H221.051C221.051 35.0053 221.138 35.0053 221.138 34.9176V33.0313C221.138 33.0313 221.138 32.9436 221.182 32.9436H225.141C225.141 32.9436 225.228 32.9436 225.228 33.0313V36.6722C225.228 37.3741 224.967 37.9444 224.488 38.4269C224.01 38.9094 223.401 39.1726 222.748 39.1726H215.396V39.1287Z" fill="white"/>
<path d="M230.405 39.1288C230.405 39.1288 230.318 39.1288 230.318 39.0411V18.5995C230.318 18.5995 230.318 18.5117 230.405 18.5117H242.5C242.5 18.5117 242.587 18.5117 242.587 18.5995V22.5474C242.587 22.5474 242.587 22.6351 242.5 22.6351H234.451C234.451 22.6351 234.364 22.6351 234.364 22.7229V26.7147C234.364 26.7147 234.364 26.7586 234.451 26.7586H240.411C240.411 26.7586 240.498 26.7586 240.498 26.8463V30.8381C240.498 30.8381 240.498 30.9258 240.411 30.9258H234.451C234.451 30.9258 234.364 30.9258 234.364 30.9697V34.9615C234.364 34.9615 234.364 35.0493 234.451 35.0493H242.5C242.5 35.0493 242.587 35.0493 242.587 35.137V39.085C242.587 39.085 242.587 39.1727 242.5 39.1727H230.405V39.1288Z" fill="white"/>
<path d="M247.242 39.1287C247.242 39.1287 247.155 39.1287 247.155 39.041V20.9681C247.155 20.2663 247.416 19.696 247.894 19.2135C248.373 18.731 248.938 18.4678 249.634 18.4678H256.987C257.683 18.4678 258.248 18.731 258.727 19.2135C259.206 19.696 259.467 20.2663 259.467 20.9681V39.041C259.467 39.041 259.467 39.1287 259.38 39.1287H255.421C255.421 39.1287 255.377 39.1287 255.377 39.041V33.0313C255.377 33.0313 255.377 32.9436 255.29 32.9436H251.331C251.331 32.9436 251.244 32.9436 251.244 33.0313V39.041C251.244 39.041 251.244 39.1287 251.201 39.1287H247.242ZM251.331 28.8202H255.29C255.29 28.8202 255.377 28.8202 255.377 28.7325V22.7228C255.377 22.7228 255.377 22.6351 255.29 22.6351H251.331C251.331 22.6351 251.244 22.6351 251.244 22.7228V28.7325C251.244 28.7325 251.244 28.8202 251.331 28.8202Z" fill="white"/>
<path d="M264.644 39.1287C264.644 39.1287 264.557 39.1287 264.557 39.041V20.9681C264.557 20.2663 264.818 19.696 265.296 19.2135C265.775 18.731 266.341 18.4678 267.037 18.4678H274.389C275.085 18.4678 275.651 18.731 276.129 19.2135C276.608 19.696 276.869 20.2663 276.869 20.9681V39.041C276.869 39.041 276.869 39.1287 276.782 39.1287H272.823C272.823 39.1287 272.779 39.1287 272.779 39.041V22.7228C272.779 22.7228 272.779 22.6351 272.692 22.6351H268.733C268.733 22.6351 268.646 22.6351 268.646 22.7228V39.041C268.646 39.041 268.646 39.1287 268.603 39.1287H264.644Z" fill="white"/>
<path d="M152.008 3.72862C161.101 3.72862 169.323 7.58885 174.631 13.7301C172.195 12.9844 169.584 12.6335 166.887 12.6335C164.929 12.6335 162.928 12.8528 161.014 13.2037C157.794 13.8617 154.836 15.0022 152.008 16.055C150.746 16.5375 149.441 17.0201 148.18 17.4587C147.788 17.5903 147.44 17.7219 147.049 17.8097C145.047 18.4238 143.09 18.687 141.175 18.687C138.652 18.687 136.129 18.1606 133.475 17.1078C131.691 16.4059 130.081 15.5725 128.689 14.6513C133.997 7.76431 142.698 3.64089 152.095 3.64089M152.008 0C139.696 0 128.994 6.31673 123.599 15.5725C126.035 17.7219 128.95 19.4327 132.083 20.661C135.128 21.8454 138.086 22.5033 141.132 22.5033C143.394 22.5033 145.7 22.1524 148.049 21.4506C148.484 21.319 148.919 21.1874 149.311 21.0558C153.444 19.652 157.403 17.7658 161.753 16.8885C163.45 16.5375 165.19 16.3621 166.931 16.3621C169.889 16.3621 172.847 16.8885 175.545 17.9851C178.764 19.3011 181.505 21.3628 183.724 23.9071C180.852 10.3085 167.757 0.0438662 152.052 0.0438662L152.008 0Z" fill="white"/>
<path d="M184.246 29.522C184.246 30.18 184.246 30.838 184.159 31.4521C183.071 30.6187 181.896 29.9168 180.722 29.2588C175.153 26.2759 168.149 26.0127 161.884 26.89C156.228 27.7235 150.79 29.3465 145.221 30.4432C139.435 31.5837 133.518 31.9785 127.776 30.5309C125.252 29.8729 122.816 28.6447 120.728 27.241C120.423 27.0655 120.162 26.8462 119.901 26.6707C120.075 25.1792 120.336 23.6878 120.728 22.2402C121.685 23.2053 122.772 24.0387 123.991 24.7406C129.603 28.0305 136.433 27.7674 142.654 26.583C148.528 25.4863 154.227 23.6439 160.144 22.6789C168.497 21.319 176.545 22.3279 183.158 27.4603C183.506 27.7235 183.854 27.9867 184.159 28.2937C184.159 28.6885 184.159 29.1272 184.159 29.522H184.246Z" fill="white"/>
<path d="M183.985 33.3823C183.898 34.0403 183.767 34.6544 183.637 35.2686C183.245 35.0931 182.854 34.9615 182.462 34.786C180.243 34.0403 177.546 34.6983 175.371 35.2247C172.804 35.8827 170.28 36.76 167.757 37.6373C162.623 39.4797 157.49 41.4537 152.008 42.2871C148.093 42.8574 144.134 42.8574 140.218 42.3749C133.257 41.4975 126.557 39.2604 120.554 35.9704C120.206 34.5667 119.988 33.1191 119.858 31.6715C120.293 32.0663 120.728 32.4611 121.206 32.812C125.252 35.9704 129.864 37.5935 134.693 38.0321C139.783 38.5146 145.134 37.7689 150.224 36.3213C159.709 33.6455 169.541 29.215 179.678 31.7154C181.2 32.0663 182.636 32.5927 183.985 33.3384V33.3823Z" fill="white"/>
<path d="M177.328 41.4537C172.499 49.8321 162.797 55.3154 152.008 55.3154C148.31 55.3154 144.699 54.6574 141.393 53.473C142.393 53.5608 143.351 53.5608 144.351 53.5608C146.875 53.5608 149.398 53.2976 151.834 52.815C157.881 51.6306 163.233 48.9109 168.366 46.3228L169.149 45.928C170.585 45.2262 171.934 44.4366 173.326 43.647C174.718 42.8574 176.023 42.1117 177.372 41.4537M180.852 36.6284C179.417 36.6284 177.981 37.0232 176.415 37.7689C173.326 39.2604 170.498 41.0589 167.453 42.5942C162.275 45.2262 156.924 48.0336 151.095 49.1741C148.876 49.6128 146.613 49.8321 144.351 49.8321C141.088 49.8321 137.825 49.3935 134.736 48.5162C133.431 48.1652 132.17 47.7266 130.908 47.244C128.298 46.1912 125.818 44.8753 123.512 43.2522C128.907 52.5957 139.653 59.0002 152.052 59.0002C167.018 59.0002 179.591 49.6567 183.245 37.0232C182.462 36.76 181.679 36.6284 180.896 36.6284H180.852Z" fill="white"/>
</g>
<defs>
<clipPath id="clip0_16_24">
<rect width="278" height="59" fill="white"/>
</clipPath>
</defs>
</svg>
